<svg xmlns="http://www.w3.org/2000/svg" xmlns:xlink="http://www.w3.org/1999/xlink" id="Layer_1" x="0px" y="0px" viewBox="0 0 262 56" style="enable-background:new 0 0 262 56;" xml:space="preserve"><style type="text/css">	.st0{fill:#FFF26E;}	.st1{fill:#A2CE63;}	.st2{fill:#3B99D4;}	.st3{fill:#C056A0;}	.st4{fill:#EA5D7B;}	.st5{fill:#D32027;}	.st6{fill:#E8D619;}	.st7{fill:#83B541;}	.st8{fill:#0865AC;}	.st9{fill:#A22382;}	.st10{fill:#11274A;}	.st11{fill:#6B6C6C;}</style><path class="st0" d="M242.5,28.2c-1.2-0.3-2.2-0.5-3.3-0.7c-1.9-0.2-3.8-0.2-5.6,0.8c-0.3,0.2-0.4-0.1-0.5-0.2c-2-3.2-4.6-5.8-7.7-8 c-3.6-2.5-8.2-4.3-12.6-4.9c5.8-1,11.4-0.4,16.8,1.9C235,19.3,239.2,23.2,242.5,28.2z"></path><path class="st1" d="M234.9,42.5c-0.7-0.9-1.5-1.6-2.4-2.2c-0.7-0.4-1.5-0.8-2.4-0.6c-0.4,0.1-0.2-0.2-0.2-0.4 c0-1.8-0.2-3.5-0.6-5.3c-0.9-4.3-2.6-8.3-5.7-11.5c-0.9-0.9-1.8-1.7-2.9-2.5C229.8,22.7,235.6,31.6,234.9,42.5z"></path><path class="st2" d="M226.3,47.3c-0.7,1.3-1.6,2.6-2.6,3.8c0,0,0,0.1-0.1,0.1c0,0,0,0,0,0c0,0,0,0,0,0.1c0,0,0,0,0,0c0,0,0,0,0,0.1 c0,0,0,0,0,0c-0.4-2.3-1-4.3-1.8-6.3c-0.1-0.3-0.1-0.4,0.1-0.6c2.9-1.9,4-4.7,4.1-8c0.1-2.2-0.4-4.3-1-6.4c0-0.1,0-0.2-0.1-0.4 c0,0,0,0,0,0c1.8,2.2,3,4.5,3.5,7.2C229.1,40.6,228.1,44,226.3,47.3z"></path><path class="st3" d="M223.2,39.6c-2.2,5-5.8,8.6-10.4,11.3c0,0,0,0,0,0c-0.2,0.1-0.5,0.3-0.7,0.4c1-1.9,2.4-3.6,1.6-6 c3.9-0.3,7-2.2,9.3-5.3c0-0.1,0.1-0.1,0.1-0.2c0,0,0,0,0-0.1C223.1,39.6,223.2,39.6,223.2,39.6z"></path><path class="st4" d="M237.6,9c-0.1,0-2.6-1.1-3.8-1.5c-4.1-1.5-8.4-2.4-12.8-2.6c-1.2,0-2.4,0-3.6,0c-2.4,0.1-4.8,0.5-7.1,1.1 c-3.5,0.9-6.9,2.4-10.1,4.4c-2,1.2-3.8,2.7-5.5,4.3c-0.5,0.5-1.3,1.5-1.3,1.5C193.6,16.2,212.4,2.7,237.6,9z"></path><path class="st5" d="M234.3,10.6c0.2-0.1,0.4-0.2,0.6-0.3c0.6-0.3,1.1-0.6,1.7-0.8c0.3-0.1,0.5-0.2,0.8-0.3c0.1,0,0.1,0,0.2-0.1 c-25.2-6.3-44,7.1-44.2,7.3c1.2-0.5,2.3-0.9,3.5-1.3c0.5-0.2,1-0.4,1.5-0.5c1.1-0.4,2.2-0.7,3.3-1c4.6-1.3,9.3-1.9,14.1-1.8 c4.8,0.1,9.5,0.9,13.9,2.9c0.1,0,0.1,0,0.2,0.1c0.1,0,0.2,0,0.3-0.1c0,0,0.1-0.1,0.1-0.1c0.1-0.2,0.3-0.4,0.4-0.6 C231.5,12.5,232.8,11.5,234.3,10.6z"></path><path class="st6" d="M242.5,28.2c-1.2-0.3-2.2-0.5-3.3-0.7c-1.9-0.2-3.8-0.2-5.6,0.8c-0.3,0.2-0.4-0.1-0.5-0.2c-2-3.2-4.6-5.8-7.7-8 c-3.6-2.5-8.2-4.3-12.6-4.9C212.8,15.2,228.8,15.1,242.5,28.2z"></path><path class="st7" d="M234.9,42.5c-0.7-0.9-1.5-1.6-2.4-2.2c-0.7-0.4-1.5-0.8-2.4-0.6c-0.4,0.1-0.2-0.2-0.2-0.4 c0-1.8-0.2-3.5-0.6-5.3c-0.9-4.3-2.6-8.3-5.7-11.5c-0.9-0.9-1.8-1.7-2.9-2.5C220.8,20.1,232.3,25.2,234.9,42.5z"></path><path class="st8" d="M223.7,51.2C223.7,51.2,223.7,51.2,223.7,51.2C223.7,51.2,223.7,51.2,223.7,51.2 C223.6,51.3,223.6,51.3,223.7,51.2c0,0.1-0.1,0.1-0.1,0.1c0,0,0,0,0,0c-0.4-2.3-1-4.3-1.8-6.3c-0.1-0.3-0.1-0.4,0.1-0.6 c2.9-1.9,4-4.7,4.1-8c0.1-2.2-0.4-4.3-1-6.4c0-0.1,0-0.2-0.1-0.4c0,0,0,0,0,0C225.1,29.9,230.1,37,223.7,51.2z"></path><path class="st9" d="M222.9,39.9c-1.2,1.6-6.4,8.6-10.1,11c0,0,0,0,0,0c-0.2,0.2-0.5,0.3-0.7,0.4c1-1.9,2.4-3.6,1.6-6 C217.6,44.9,220.6,43,222.9,39.9z"></path><g>	<path class="st10" d="M35.8,20.6c0.1,0,0.2,0,0.4,0.1c0.2,0,0.4,0.1,0.5,0.2c0.2,0.1,0.3,0.2,0.4,0.3c0.1,0.1,0.2,0.2,0.2,0.4  c0,0.1,0,0.2-0.1,0.4c0,0.2-0.1,0.4-0.2,0.6c-0.1,0.2-0.1,0.4-0.2,0.5c-0.1,0.2-0.2,0.2-0.3,0.2h-0.2L33,23h-0.3  c-0.8,0-1.6,0.1-2.4,0.4c-0.9,0.3-1.7,0.6-2.5,1.1c-0.8,0.5-1.5,1-2.1,1.7c-0.6,0.7-1.1,1.3-1.4,1.9c-0.2,0.7-0.4,1.3-0.6,2  c0,2.8,0.1,4.2,0.2,4.4c0.1,0.2,0.3,0.5,0.5,0.8c0.2,0.4,0.4,0.7,0.7,1.1c0.3,0.3,0.6,0.6,0.9,0.8c0.4,0.2,0.9,0.4,1.5,0.5  c1.8,0.2,3.9,0.2,6.4-0.2c0.2,0.2,0.3,0.3,0.3,0.3c0,0.7-0.2,1.2-0.6,1.6c-0.4,0.4-0.8,0.6-1.4,0.8c-0.6,0.2-1.1,0.3-1.8,0.3  c-0.6,0-1.2,0.1-1.7,0.1c-2,0-3.6-0.4-5-1.1c-1.4-0.7-2.4-1.6-3-2.5c-0.6-1-0.9-2.3-0.9-4.1c0-1.8,0.1-3,0.4-3.7  c0.3-0.7,0.5-1.2,0.7-1.6s0.3-0.7,0.4-1c0.2-0.6,0.6-1.1,1-1.6c0.4-0.5,0.9-1,1.4-1.5c0.5-0.5,1.1-0.9,1.7-1.2  c0.6-0.3,1.2-0.6,1.7-0.8c0.1,0,0.6-0.2,1.8-0.5c1.1-0.3,3.2-0.5,6.2-0.4H35.8z"></path>	<path class="st10" d="M37.1,34.8c0-0.1,0-0.2,0-0.5c0-0.2,0-0.5,0-0.7c0-0.2,0-0.5,0-0.7c0-0.2,0-0.4,0-0.5c0-1.8,0.3-3.5,0.9-4.9  c0.6-1.5,1.4-2.7,2.5-3.7c1.1-1,2.4-1.8,3.9-2.3c1.5-0.6,3.2-0.8,5-0.8c1.3,0,2.5,0.1,3.5,0.4c1.1,0.3,2,0.7,2.8,1.3  c0.8,0.6,1.4,1.3,1.8,2.3c0.4,0.9,0.6,2.1,0.6,3.4c0,0.3,0,0.8-0.1,1.4c-0.1,0.6-0.2,1.2-0.3,1.8c-0.1,0.6-0.3,1.2-0.5,1.8  c-0.2,0.6-0.6,1.3-1.2,2.2c-0.6,0.9-1.3,1.7-2,2.4c-0.7,0.7-1.5,1.3-2.4,1.7c-0.9,0.4-1.9,0.7-2.9,0.9c-1,0.2-2,0.3-3,0.3  c-1,0-1.9-0.1-2.8-0.4c-0.9-0.2-1.7-0.6-2.5-1c-0.8-0.5-1.4-1-2-1.8C37.7,36.7,37.3,35.8,37.1,34.8z M40.8,33.1  c0,0.7,0.1,1.4,0.4,2c0.3,0.6,0.6,1.1,1.1,1.5c0.5,0.4,1,0.7,1.6,0.9c0.6,0.2,1.3,0.3,2,0.3c1.3,0,2.4-0.3,3.4-0.8  c1-0.5,1.9-1.2,2.6-2c0.7-0.8,1.3-1.8,1.7-2.9c0.4-1.1,0.6-2.2,0.6-3.4c0-0.7-0.1-1.3-0.3-2c-0.2-0.7-0.5-1.3-0.9-1.8  c-0.4-0.5-0.9-0.9-1.5-1.2c-0.6-0.3-1.3-0.5-2.1-0.5c-1.4,0-2.7,0.3-3.8,0.8c-1.1,0.5-2,1.3-2.7,2.2c-0.7,0.9-1.3,1.9-1.7,3.1  C40.9,30.5,40.8,31.8,40.8,33.1z"></path>	<path class="st10" d="M72.6,35.7l3.5-15h3.3l-4.2,19.9h-4.9L65,26.1l-3.5,14.4h-2.8L63,20.6h4C70.7,30.7,72.6,35.7,72.6,35.7z"></path>	<path class="st10" d="M78.8,34.8c0-0.1,0-0.2,0-0.5c0-0.2,0-0.5,0-0.7c0-0.2,0-0.5,0-0.7c0-0.2,0-0.4,0-0.5c0-1.8,0.3-3.5,0.9-4.9  c0.6-1.5,1.4-2.7,2.5-3.7c1.1-1,2.4-1.8,3.9-2.3c1.5-0.6,3.2-0.8,5-0.8c1.3,0,2.4,0.1,3.5,0.4c1.1,0.3,2,0.7,2.8,1.3  c0.8,0.6,1.4,1.3,1.8,2.3c0.4,0.9,0.6,2.1,0.6,3.4c0,0.3,0,0.8-0.1,1.4c-0.1,0.6-0.2,1.2-0.3,1.8c-0.1,0.6-0.3,1.2-0.5,1.8  c-0.2,0.6-0.6,1.2-1.1,1.9c-0.6,0.7-1.1,1.4-1.5,2l2.7,2l-1.5,1.7l-2.8-2c-0.3,0.2-0.8,0.4-1.6,0.8c-0.7,0.4-1.6,0.7-2.6,0.9  c-1,0.2-2,0.3-3,0.3c-1,0-1.9-0.1-2.8-0.4c-0.9-0.2-1.7-0.6-2.5-1c-0.7-0.5-1.4-1-2-1.8C79.5,36.7,79.1,35.8,78.8,34.8z M82.5,33  c0,0.8,0.1,1.4,0.4,2c0.3,0.6,0.6,1.1,1.1,1.5c0.5,0.4,1,0.7,1.6,1c0.6,0.2,1.3,0.3,2,0.3c1.3,0,2.7-0.4,4.3-1.3l-4.5-3.2l1.7-1.6  l4.7,3.2c0.7-0.8,1.2-1.8,1.6-2.9s0.6-2.2,0.6-3.4c0-0.7-0.1-1.4-0.3-2.1c-0.2-0.7-0.5-1.3-0.9-1.8c-0.4-0.5-0.9-0.9-1.5-1.2  c-0.6-0.3-1.3-0.5-2.1-0.5c-1.4,0-2.7,0.3-3.8,0.8c-1.1,0.5-2,1.3-2.7,2.2c-0.7,0.9-1.3,2-1.7,3.2C82.7,30.5,82.5,31.7,82.5,33z"></path>	<path class="st10" d="M100.3,36.3c0-1.3,1-6.5,3.1-15.6h3.4c-1.9,8.1-2.7,12.7-2.5,14c0,0.3,0,0.6,0.1,1c0.1,0.4,0.2,0.7,0.4,1  c0.2,0.3,0.4,0.6,0.7,0.8c0.3,0.2,0.6,0.3,1.1,0.3c1,0.2,2.2,0.2,3.7,0c0.6-0.2,1.2-0.4,1.7-0.9c0.5-0.4,1-1,1.5-1.8  c0.5-0.8,1.7-5.6,3.7-14.4h3.3c-1.6,8.2-2.6,12.7-3,13.7c-0.3,0.9-0.8,1.8-1.3,2.6c-0.5,0.8-1.1,1.4-1.9,2c-0.8,0.5-1.7,1-2.9,1.2  c-1.1,0.3-2.5,0.4-4.1,0.4c-0.7,0-1.5-0.1-2.3-0.2c-0.8-0.1-1.5-0.3-2.2-0.6c-0.7-0.3-1.2-0.7-1.7-1.3  C100.5,37.9,100.3,37.2,100.3,36.3z"></path>	<path class="st10" d="M124.2,20.6H138l-0.9,2.4h-1h-8h-0.9l-1.3,6h8.9l-0.7,2.7h-8.8l-1.3,6.1h9.9l-0.9,2.6l-2.4,0.1h-2.3h-8.5  L124.2,20.6z"></path>	<path class="st10" d="M141.5,20.6h7.2c1.2,0.1,2.2,0.2,2.8,0.4c0.7,0.2,1.3,0.4,1.7,0.7c0.5,0.3,0.9,0.7,1.2,1.2  c0.3,0.5,0.4,1.2,0.4,2c0,1.2-0.2,2.2-0.6,3.2c-0.4,0.9-1,1.8-1.7,2.4c-0.7,0.7-1.9,1.3-3.7,2l3.5,8h-3.6l-3.7-9.2l0.1-0.8  c0.6-0.1,1.2-0.2,2-0.4c0.7-0.2,1.4-0.4,1.9-0.7c0.5-0.3,1-0.7,1.3-1.3c0.3-0.5,0.5-1.2,0.5-2.1c0-0.2,0-0.4-0.1-0.7  c-0.1-0.3-0.2-0.6-0.3-0.8c-0.1-0.3-0.3-0.5-0.5-0.7c-0.2-0.2-0.4-0.3-0.7-0.3h-4.8l-4,16.8h-3.1l-0.4-0.1L141.5,20.6z"></path>	<path class="st10" d="M155.5,34.8c0-0.1,0-0.2,0-0.5c0-0.2,0-0.5,0-0.7c0-0.2,0-0.5,0-0.7c0-0.2,0-0.4,0-0.5c0-1.8,0.3-3.5,0.9-4.9  c0.6-1.5,1.4-2.7,2.5-3.7c1.1-1,2.4-1.8,3.9-2.3c1.5-0.6,3.2-0.8,5-0.8c1.3,0,2.5,0.1,3.5,0.4c1.1,0.3,2,0.7,2.8,1.3  s1.4,1.3,1.8,2.3c0.4,0.9,0.6,2.1,0.6,3.4c0,0.3,0,0.8-0.1,1.4c-0.1,0.6-0.2,1.2-0.3,1.8c-0.1,0.6-0.3,1.2-0.5,1.8  c-0.2,0.6-0.6,1.3-1.2,2.2c-0.6,0.9-1.3,1.7-2,2.4c-0.7,0.7-1.5,1.3-2.4,1.7c-0.9,0.4-1.9,0.7-2.9,0.9c-1,0.2-2,0.3-3,0.3  c-1,0-1.9-0.1-2.8-0.4c-0.9-0.2-1.7-0.6-2.5-1c-0.8-0.5-1.4-1-2-1.8C156.2,36.7,155.8,35.8,155.5,34.8z M159.2,33.1  c0,0.7,0.1,1.4,0.4,2c0.3,0.6,0.6,1.1,1.1,1.5c0.5,0.4,1,0.7,1.6,0.9c0.6,0.2,1.3,0.3,2,0.3c1.3,0,2.4-0.3,3.4-0.8  c1-0.5,1.9-1.2,2.6-2c0.7-0.8,1.3-1.8,1.7-2.9c0.4-1.1,0.6-2.2,0.6-3.4c0-0.7-0.1-1.3-0.3-2c-0.2-0.7-0.5-1.3-0.9-1.8  c-0.4-0.5-0.9-0.9-1.5-1.2c-0.6-0.3-1.3-0.5-2.1-0.5c-1.4,0-2.7,0.3-3.8,0.8c-1.1,0.5-2,1.3-2.7,2.2c-0.7,0.9-1.3,1.9-1.7,3.1  C159.4,30.5,159.2,31.8,159.2,33.1z"></path>	<path class="st10" d="M181.5,20.6h7.2c1.2,0.1,2.2,0.2,2.8,0.4c0.7,0.2,1.3,0.4,1.7,0.7c0.5,0.3,0.9,0.7,1.2,1.2  c0.3,0.5,0.4,1.2,0.4,2c0,1.2-0.2,2.2-0.6,3.2c-0.4,0.9-1,1.8-1.7,2.4c-0.7,0.7-1.9,1.3-3.7,2l3.5,8h-3.6l-3.7-9.2l0.1-0.8  c0.6-0.1,1.2-0.2,2-0.4c0.7-0.2,1.4-0.4,1.9-0.7c0.5-0.3,1-0.7,1.3-1.3c0.3-0.5,0.5-1.2,0.5-2.1c0-0.2,0-0.4-0.1-0.7  c-0.1-0.3-0.2-0.6-0.3-0.8c-0.1-0.3-0.3-0.5-0.5-0.7c-0.2-0.2-0.4-0.3-0.7-0.3h-4.8l-4,16.8h-3.1l-0.4-0.1L181.5,20.6z"></path>	<path class="st10" d="M195.7,40.1c0-0.1,0-0.1,0-0.2s0-0.1,0-0.2c0-0.1,0-0.1,0-0.1c0-0.1,0.1-0.3,0.1-0.5c0.1-0.2,0.1-0.4,0.2-0.6  c0.1-0.2,0.1-0.3,0.2-0.5c0.1-0.1,0.1-0.2,0.1-0.2h7.3c0.3,0,0.6-0.1,0.8-0.2c0.3-0.1,0.5-0.3,0.6-0.6c0.2-0.3,0.3-0.6,0.4-0.8  c0.1-0.2,0.2-0.5,0.2-0.9c-0.1-0.3-0.1-0.6-0.2-0.8c0-0.2-0.2-0.4-0.4-0.6l-5.5-5.6c-0.2-0.3-0.4-0.5-0.6-0.7  c-0.1-0.2-0.2-0.4-0.3-0.6c-0.1-0.2-0.1-0.4-0.1-0.7c0-0.2,0-0.5,0-0.8c0-0.9,0.2-1.6,0.5-2.2c0.3-0.6,0.8-1.1,1.3-1.5  c0.6-0.4,1.2-0.7,1.9-0.9c0.7-0.2,1.4-0.3,2.1-0.4h6.5h1l-0.4,2.2l-0.9,0.5h-6.1c-0.2,0-0.4,0.1-0.6,0.2c-0.2,0.2-0.3,0.4-0.5,0.6  c-0.1,0.2-0.3,0.5-0.4,0.7c-0.1,0.2-0.1,0.4-0.1,0.6c0,0.5,0.2,1,0.5,1.4c0.3,0.5,0.8,1,1.3,1.5c0.5,0.5,1.1,1,1.7,1.5  c0.6,0.5,1.2,1.1,1.7,1.6c0.5,0.6,1,1.2,1.3,1.8c0.3,0.6,0.5,1.3,0.5,2c0,0.9-0.2,1.7-0.6,2.3c-0.4,0.6-0.9,1.2-1.5,1.7  c-0.6,0.5-1.3,0.8-2,1c-0.7,0.1-1.5,0.2-2.4,0.2c-0.8,0-1.7,0-2.4,0c-0.8,0-1.4,0-2,0l-3.1-0.1l-0.5-0.3  C195.7,40.2,195.7,40.1,195.7,40.1z"></path></g><g>	<path class="st11" d="M24.4,46.5c0,0.1-0.1,0.1-0.1,0.1c0,0-0.1,0-0.2,0c-0.1,0-0.1,0-0.2-0.1c-0.1,0-0.1-0.1-0.2-0.2  c-0.1-0.1-0.2-0.1-0.3-0.2c-0.1-0.1-0.3-0.1-0.5-0.1c-0.2,0-0.3,0-0.5,0.1c-0.1,0.1-0.2,0.1-0.3,0.2c-0.1,0.1-0.2,0.2-0.2,0.3  c0,0.1-0.1,0.3-0.1,0.4c0,0.1,0,0.3,0.1,0.4c0.1,0.1,0.2,0.2,0.3,0.3c0.1,0.1,0.3,0.1,0.4,0.2c0.2,0.1,0.3,0.1,0.5,0.2  s0.3,0.1,0.5,0.2c0.2,0.1,0.3,0.2,0.4,0.3c0.1,0.1,0.2,0.3,0.3,0.4c0.1,0.2,0.1,0.4,0.1,0.6c0,0.3-0.1,0.7-0.2,1  c-0.1,0.3-0.3,0.6-0.5,0.8c-0.2,0.2-0.5,0.4-0.8,0.5c-0.3,0.1-0.7,0.2-1,0.2c-0.2,0-0.4,0-0.6-0.1c-0.2,0-0.4-0.1-0.5-0.2  c-0.2-0.1-0.3-0.2-0.5-0.3c-0.1-0.1-0.3-0.2-0.4-0.4l0.4-0.6c0,0,0.1-0.1,0.1-0.1c0.1,0,0.1,0,0.2,0c0.1,0,0.1,0,0.2,0  c0,0,0.1,0.1,0.2,0.1c0.1,0,0.1,0.1,0.2,0.2c0.1,0.1,0.1,0.1,0.2,0.2c0.1,0,0.2,0.1,0.3,0.1c0.1,0,0.2,0,0.4,0  c0.4,0,0.6-0.1,0.9-0.3c0.2-0.2,0.3-0.5,0.3-0.8c0-0.2,0-0.3-0.1-0.4c-0.1-0.1-0.2-0.2-0.3-0.3c-0.1-0.1-0.3-0.1-0.4-0.2  s-0.3-0.1-0.5-0.2c-0.2-0.1-0.3-0.1-0.5-0.2c-0.2-0.1-0.3-0.2-0.4-0.3c-0.1-0.1-0.2-0.3-0.3-0.5c-0.1-0.2-0.1-0.4-0.1-0.7  c0-0.3,0.1-0.6,0.2-0.9c0.1-0.3,0.3-0.5,0.5-0.7c0.2-0.2,0.5-0.4,0.7-0.5c0.3-0.1,0.6-0.2,1-0.2c0.2,0,0.4,0,0.5,0.1  c0.2,0,0.3,0.1,0.5,0.2c0.1,0.1,0.3,0.2,0.4,0.3c0.1,0.1,0.2,0.2,0.3,0.3L24.4,46.5z"></path>	<path class="st11" d="M35.4,48.2c0,0.4,0,0.7-0.1,1.1c-0.1,0.3-0.2,0.7-0.4,1c-0.2,0.3-0.3,0.6-0.6,0.8c-0.2,0.2-0.5,0.4-0.7,0.6  c-0.3,0.2-0.6,0.3-0.9,0.4c-0.3,0.1-0.7,0.1-1,0.1c-0.4,0-0.8-0.1-1.2-0.2c-0.4-0.2-0.6-0.4-0.9-0.6c-0.2-0.3-0.4-0.6-0.6-1  c-0.1-0.4-0.2-0.8-0.2-1.2c0-0.4,0-0.7,0.1-1.1c0.1-0.3,0.2-0.7,0.4-1c0.2-0.3,0.3-0.6,0.6-0.8c0.2-0.2,0.5-0.4,0.7-0.6  c0.3-0.2,0.6-0.3,0.9-0.4c0.3-0.1,0.7-0.1,1-0.1c0.4,0,0.8,0.1,1.2,0.2c0.4,0.2,0.6,0.4,0.9,0.6c0.2,0.3,0.4,0.6,0.6,1  C35.3,47.4,35.4,47.8,35.4,48.2z M34.1,48.3c0-0.3,0-0.6-0.1-0.9c-0.1-0.3-0.2-0.5-0.3-0.7c-0.1-0.2-0.3-0.3-0.5-0.4  c-0.2-0.1-0.5-0.1-0.7-0.1c-0.3,0-0.7,0.1-0.9,0.2c-0.3,0.1-0.5,0.3-0.7,0.6c-0.2,0.3-0.4,0.6-0.5,0.9c-0.1,0.4-0.2,0.8-0.2,1.2  c0,0.3,0,0.6,0.1,0.8c0.1,0.3,0.2,0.5,0.3,0.7c0.1,0.2,0.3,0.3,0.5,0.4c0.2,0.1,0.5,0.1,0.7,0.1c0.3,0,0.7-0.1,0.9-0.2  c0.3-0.1,0.5-0.3,0.7-0.6c0.2-0.3,0.4-0.6,0.5-0.9C34,49.1,34.1,48.7,34.1,48.3z"></path>	<path class="st11" d="M41.5,46.2l-0.3,2.1h2.4l-0.1,1h-2.3l-0.3,2.8h-1.2l0.9-6.9h4l-0.1,1H41.5z"></path>	<path class="st11" d="M53.4,46.3h-1.9l-0.7,5.9h-1.2l0.7-5.9h-1.9l0.1-1h5L53.4,46.3z"></path>	<path class="st11" d="M66.4,45.2l-2.8,6.9h-1.1l-0.8-4.8c0-0.1,0-0.1,0-0.2c0-0.1,0-0.1,0-0.2c0,0.1-0.1,0.2-0.1,0.2  c0,0.1-0.1,0.1-0.1,0.2l-2,4.8h-1.1l-1.1-6.9h1c0.1,0,0.2,0,0.3,0.1c0.1,0.1,0.1,0.1,0.1,0.2l0.6,4.2c0,0.1,0,0.2,0,0.3  c0,0.1,0,0.2,0,0.4c0-0.1,0.1-0.3,0.1-0.4c0-0.1,0.1-0.2,0.1-0.3l1.7-4.2c0-0.1,0.1-0.1,0.2-0.2c0.1-0.1,0.2-0.1,0.3-0.1H62  c0.1,0,0.2,0,0.3,0.1c0.1,0.1,0.1,0.1,0.1,0.2l0.7,4.2c0,0.1,0,0.2,0,0.3c0,0.1,0,0.2,0,0.4c0-0.1,0.1-0.2,0.1-0.4  c0-0.1,0.1-0.2,0.1-0.3l1.6-4.2c0,0,0-0.1,0.1-0.1c0,0,0.1-0.1,0.1-0.1c0,0,0.1,0,0.1-0.1c0,0,0.1,0,0.2,0H66.4z"></path>	<path class="st11" d="M75.1,52.2h-1c-0.1,0-0.2,0-0.3-0.1c-0.1-0.1-0.1-0.1-0.1-0.2l-0.3-1.4h-2.6l-0.6,1.4c0,0.1-0.1,0.1-0.2,0.2  c-0.1,0.1-0.2,0.1-0.3,0.1h-1l3.3-6.9h1.3L75.1,52.2z M73.3,49.6l-0.5-2.4c0-0.1,0-0.2-0.1-0.4c0-0.1-0.1-0.3-0.1-0.5  c-0.1,0.2-0.1,0.3-0.2,0.5c-0.1,0.1-0.1,0.3-0.2,0.4l-1,2.4H73.3z"></path>	<path class="st11" d="M82.2,45.2c0.4,0,0.7,0,1,0.1c0.3,0.1,0.5,0.2,0.7,0.4c0.2,0.2,0.3,0.3,0.4,0.5c0.1,0.2,0.1,0.4,0.1,0.7  c0,0.3,0,0.5-0.1,0.7c-0.1,0.2-0.2,0.4-0.3,0.6c-0.1,0.2-0.3,0.4-0.5,0.5c-0.2,0.1-0.4,0.3-0.7,0.3c0.1,0,0.1,0.1,0.2,0.2  c0.1,0.1,0.1,0.1,0.2,0.2l1.2,2.6h-1.1c-0.2,0-0.4-0.1-0.4-0.2l-1-2.2c0-0.1-0.1-0.1-0.1-0.2c-0.1,0-0.1-0.1-0.3-0.1h-0.5l-0.3,2.7  h-1.2l0.8-6.9H82.2z M81.7,48.5c0.2,0,0.5,0,0.6-0.1c0.2-0.1,0.3-0.2,0.4-0.3s0.2-0.3,0.3-0.4c0.1-0.2,0.1-0.3,0.1-0.5  c0-0.3-0.1-0.5-0.3-0.7c-0.2-0.2-0.5-0.3-0.9-0.3h-0.7L81,48.5H81.7z"></path>	<path class="st11" d="M90.7,46.2l-0.2,2h2.2l-0.1,1h-2.2l-0.2,2h2.8l-0.1,1h-4l0.9-6.9h4l-0.1,1H90.7z"></path>	<path class="st11" d="M108,46.3h-1.9l-0.7,5.9h-1.2l0.7-5.9h-1.9l0.1-1h5L108,46.3z"></path>	<path class="st11" d="M113.7,46.2l-0.2,2h2.2l-0.1,1h-2.2l-0.2,2h2.8l-0.1,1h-4l0.9-6.9h4l-0.1,1H113.7z"></path>	<path class="st11" d="M123.2,51.2c0.2,0,0.4,0,0.5,0c0.1,0,0.3-0.1,0.4-0.1c0.1,0,0.2-0.1,0.3-0.2c0.1-0.1,0.1-0.1,0.2-0.2  c0.1,0,0.1-0.1,0.2-0.1c0,0,0.1,0,0.1,0c0,0,0.1,0,0.1,0c0,0,0,0,0.1,0l0.4,0.5c-0.3,0.3-0.7,0.6-1.1,0.8c-0.4,0.2-0.9,0.3-1.4,0.3  c-0.4,0-0.8-0.1-1.1-0.2c-0.3-0.2-0.6-0.4-0.8-0.6c-0.2-0.3-0.4-0.6-0.5-1c-0.1-0.4-0.2-0.8-0.2-1.2c0-0.4,0-0.8,0.1-1.1  c0.1-0.4,0.2-0.7,0.4-1c0.2-0.3,0.3-0.6,0.6-0.8c0.2-0.2,0.5-0.4,0.7-0.6c0.3-0.2,0.6-0.3,0.9-0.4c0.3-0.1,0.6-0.1,1-0.1  c0.3,0,0.5,0,0.7,0.1c0.2,0,0.4,0.1,0.6,0.2c0.2,0.1,0.3,0.2,0.5,0.3c0.1,0.1,0.3,0.2,0.4,0.4l-0.4,0.5c0,0-0.1,0.1-0.1,0.1  c0,0-0.1,0-0.2,0c-0.1,0-0.1,0-0.2-0.1c-0.1-0.1-0.1-0.1-0.2-0.2c-0.1-0.1-0.2-0.1-0.4-0.2c-0.2-0.1-0.4-0.1-0.6-0.1  c-0.3,0-0.6,0.1-0.9,0.2c-0.3,0.1-0.5,0.3-0.7,0.6c-0.2,0.3-0.4,0.6-0.5,0.9c-0.1,0.4-0.2,0.8-0.2,1.2c0,0.3,0,0.6,0.1,0.9  c0.1,0.3,0.2,0.5,0.3,0.6c0.1,0.2,0.3,0.3,0.5,0.4C122.7,51.1,123,51.2,123.2,51.2z"></path>	<path class="st11" d="M136.1,45.2l-0.9,6.9H134l0.4-3h-2.9l-0.4,3h-1.2l0.9-6.9h1.2l-0.4,3h2.9l0.4-3H136.1z"></path>	<path class="st11" d="M146.5,45.2l-0.9,6.9H145c-0.1,0-0.2,0-0.2,0c-0.1,0-0.1-0.1-0.2-0.2l-2.7-4.7c0,0.1,0,0.2,0,0.2  c0,0.1,0,0.1,0,0.2l-0.5,4.5h-1.1l0.8-6.9h0.6c0.1,0,0.1,0,0.1,0c0,0,0.1,0,0.1,0c0,0,0.1,0,0.1,0.1c0,0,0,0.1,0.1,0.1l2.7,4.7  c0-0.1,0-0.2,0-0.3c0-0.1,0-0.2,0-0.2l0.5-4.4H146.5z"></path>	<path class="st11" d="M157.3,48.2c0,0.4,0,0.7-0.1,1.1c-0.1,0.3-0.2,0.7-0.4,1c-0.2,0.3-0.3,0.6-0.6,0.8c-0.2,0.2-0.5,0.4-0.7,0.6  c-0.3,0.2-0.6,0.3-0.9,0.4c-0.3,0.1-0.7,0.1-1,0.1c-0.4,0-0.8-0.1-1.2-0.2c-0.4-0.2-0.6-0.4-0.9-0.6c-0.2-0.3-0.4-0.6-0.6-1  c-0.1-0.4-0.2-0.8-0.2-1.2c0-0.4,0-0.7,0.1-1.1c0.1-0.3,0.2-0.7,0.4-1c0.2-0.3,0.3-0.6,0.6-0.8c0.2-0.2,0.5-0.4,0.7-0.6  c0.3-0.2,0.6-0.3,0.9-0.4c0.3-0.1,0.7-0.1,1-0.1c0.4,0,0.8,0.1,1.2,0.2c0.3,0.2,0.6,0.4,0.9,0.6c0.2,0.3,0.4,0.6,0.6,1  C157.2,47.4,157.3,47.8,157.3,48.2z M156,48.3c0-0.3,0-0.6-0.1-0.9c-0.1-0.3-0.2-0.5-0.3-0.7c-0.1-0.2-0.3-0.3-0.5-0.4  c-0.2-0.1-0.5-0.1-0.7-0.1c-0.3,0-0.7,0.1-0.9,0.2c-0.3,0.1-0.5,0.3-0.7,0.6c-0.2,0.3-0.4,0.6-0.5,0.9c-0.1,0.4-0.2,0.8-0.2,1.2  c0,0.3,0,0.6,0.1,0.8c0.1,0.3,0.2,0.5,0.3,0.7c0.1,0.2,0.3,0.3,0.5,0.4c0.2,0.1,0.5,0.1,0.7,0.1c0.3,0,0.7-0.1,0.9-0.2  c0.3-0.1,0.5-0.3,0.7-0.6c0.2-0.3,0.4-0.6,0.5-0.9C155.9,49.1,156,48.7,156,48.3z"></path>	<path class="st11" d="M165.4,51.1l-0.1,1h-3.8l0.8-6.9h1.2l-0.7,5.9H165.4z"></path>	<path class="st11" d="M176,48.2c0,0.4,0,0.7-0.1,1.1c-0.1,0.3-0.2,0.7-0.4,1c-0.2,0.3-0.3,0.6-0.6,0.8c-0.2,0.2-0.5,0.4-0.7,0.6  c-0.3,0.2-0.6,0.3-0.9,0.4c-0.3,0.1-0.7,0.1-1,0.1c-0.4,0-0.8-0.1-1.2-0.2c-0.4-0.2-0.6-0.4-0.9-0.6c-0.2-0.3-0.4-0.6-0.6-1  c-0.1-0.4-0.2-0.8-0.2-1.2c0-0.4,0-0.7,0.1-1.1c0.1-0.3,0.2-0.7,0.4-1c0.2-0.3,0.3-0.6,0.6-0.8c0.2-0.2,0.5-0.4,0.7-0.6  c0.3-0.2,0.6-0.3,0.9-0.4c0.3-0.1,0.7-0.1,1-0.1c0.4,0,0.8,0.1,1.2,0.2c0.3,0.2,0.6,0.4,0.9,0.6c0.2,0.3,0.4,0.6,0.6,1  C175.9,47.4,176,47.8,176,48.2z M174.7,48.3c0-0.3,0-0.6-0.1-0.9c-0.1-0.3-0.2-0.5-0.3-0.7c-0.1-0.2-0.3-0.3-0.5-0.4  c-0.2-0.1-0.5-0.1-0.7-0.1c-0.3,0-0.7,0.1-0.9,0.2c-0.3,0.1-0.5,0.3-0.7,0.6s-0.4,0.6-0.5,0.9c-0.1,0.4-0.2,0.8-0.2,1.2  c0,0.3,0,0.6,0.1,0.8c0.1,0.3,0.2,0.5,0.3,0.7c0.1,0.2,0.3,0.3,0.5,0.4c0.2,0.1,0.5,0.1,0.7,0.1c0.3,0,0.7-0.1,0.9-0.2  c0.3-0.1,0.5-0.3,0.7-0.6c0.2-0.3,0.4-0.6,0.5-0.9C174.6,49.1,174.7,48.7,174.7,48.3z"></path>	<path class="st11" d="M183.7,48.7h2.1l-0.3,2.8c-0.3,0.3-0.7,0.4-1.1,0.6c-0.4,0.1-0.9,0.2-1.4,0.2c-0.4,0-0.8-0.1-1.2-0.2  c-0.3-0.2-0.6-0.4-0.9-0.6c-0.2-0.3-0.4-0.6-0.6-1c-0.1-0.4-0.2-0.8-0.2-1.2c0-0.4,0-0.8,0.1-1.1c0.1-0.3,0.2-0.7,0.4-1  c0.2-0.3,0.3-0.6,0.6-0.8c0.2-0.2,0.5-0.4,0.7-0.6c0.3-0.2,0.6-0.3,0.9-0.4c0.3-0.1,0.7-0.1,1-0.1c0.3,0,0.5,0,0.8,0.1  c0.2,0,0.4,0.1,0.6,0.2c0.2,0.1,0.4,0.2,0.5,0.3c0.1,0.1,0.3,0.2,0.4,0.4l-0.4,0.5c-0.1,0.1-0.1,0.1-0.2,0.2c-0.1,0-0.2,0-0.3-0.1  c-0.1-0.1-0.2-0.1-0.3-0.2c-0.1-0.1-0.2-0.1-0.3-0.2c-0.1,0-0.2-0.1-0.4-0.1c-0.1,0-0.3,0-0.5,0c-0.3,0-0.7,0.1-0.9,0.2  c-0.3,0.1-0.5,0.3-0.7,0.6c-0.2,0.3-0.4,0.6-0.5,0.9c-0.1,0.4-0.2,0.8-0.2,1.2c0,0.3,0,0.6,0.1,0.9c0.1,0.3,0.2,0.5,0.4,0.7  c0.2,0.2,0.3,0.3,0.6,0.4c0.2,0.1,0.5,0.1,0.7,0.1c0.3,0,0.5,0,0.7-0.1c0.2,0,0.4-0.1,0.6-0.2l0.2-1.3h-0.8c-0.1,0-0.1,0-0.2-0.1  c0,0-0.1-0.1,0-0.2L183.7,48.7z"></path>	<path class="st11" d="M191.5,52.2h-1.2l0.8-6.9h1.2L191.5,52.2z"></path>	<path class="st11" d="M198.5,46.2l-0.2,2h2.2l-0.1,1h-2.2l-0.2,2h2.8l-0.1,1h-4l0.8-6.9h4l-0.1,1H198.5z"></path>	<path class="st11" d="M209.4,46.5c0,0.1-0.1,0.1-0.1,0.1c0,0-0.1,0-0.2,0s-0.1,0-0.2-0.1c-0.1,0-0.1-0.1-0.2-0.2  c-0.1-0.1-0.2-0.1-0.3-0.2c-0.1-0.1-0.3-0.1-0.5-0.1c-0.2,0-0.3,0-0.5,0.1c-0.1,0.1-0.2,0.1-0.3,0.2c-0.1,0.1-0.2,0.2-0.2,0.3  c0,0.1-0.1,0.3-0.1,0.4c0,0.1,0,0.3,0.1,0.4c0.1,0.1,0.2,0.2,0.3,0.3c0.1,0.1,0.3,0.1,0.4,0.2c0.2,0.1,0.3,0.1,0.5,0.2  c0.2,0.1,0.3,0.1,0.5,0.2c0.2,0.1,0.3,0.2,0.4,0.3c0.1,0.1,0.2,0.3,0.3,0.4c0.1,0.2,0.1,0.4,0.1,0.6c0,0.3-0.1,0.7-0.2,1  c-0.1,0.3-0.3,0.6-0.5,0.8c-0.2,0.2-0.5,0.4-0.8,0.5c-0.3,0.1-0.7,0.2-1,0.2c-0.2,0-0.4,0-0.6-0.1c-0.2,0-0.4-0.1-0.5-0.2  c-0.2-0.1-0.3-0.2-0.5-0.3c-0.1-0.1-0.3-0.2-0.4-0.4l0.4-0.6c0,0,0.1-0.1,0.1-0.1c0.1,0,0.1,0,0.2,0c0,0,0.1,0,0.1,0  c0,0,0.1,0.1,0.2,0.1s0.1,0.1,0.2,0.2c0.1,0.1,0.1,0.1,0.2,0.2c0.1,0,0.2,0.1,0.3,0.1c0.1,0,0.2,0,0.4,0c0.4,0,0.6-0.1,0.9-0.3  c0.2-0.2,0.3-0.5,0.3-0.8c0-0.2,0-0.3-0.1-0.4c-0.1-0.1-0.2-0.2-0.3-0.3c-0.1-0.1-0.3-0.1-0.4-0.2c-0.2-0.1-0.3-0.1-0.5-0.2  c-0.2-0.1-0.3-0.1-0.5-0.2c-0.2-0.1-0.3-0.2-0.4-0.3c-0.1-0.1-0.2-0.3-0.3-0.5c-0.1-0.2-0.1-0.4-0.1-0.7c0-0.3,0.1-0.6,0.2-0.9  c0.1-0.3,0.3-0.5,0.5-0.7c0.2-0.2,0.5-0.4,0.7-0.5c0.3-0.1,0.6-0.2,1-0.2c0.2,0,0.4,0,0.5,0.1c0.2,0,0.3,0.1,0.5,0.2  s0.3,0.2,0.4,0.3c0.1,0.1,0.2,0.2,0.3,0.3L209.4,46.5z"></path></g></svg>