<svg xmlns="http://www.w3.org/2000/svg" xmlns:xlink="http://www.w3.org/1999/xlink" id="Layer_1" x="0px" y="0px" viewBox="0 0 300 66" style="enable-background:new 0 0 300 66;" xml:space="preserve"><style type="text/css">	.st0{fill:#FFF26E;}	.st1{fill:#A2CE63;}	.st2{fill:#3B99D4;}	.st3{fill:#C056A0;}	.st4{fill:#EA5D7B;}	.st5{fill:#D32027;}	.st6{fill:#E8D619;}	.st7{fill:#83B541;}	.st8{fill:#0865AC;}	.st9{fill:#A22382;}	.st10{fill:#FFFFFF;}</style><path class="st0" d="M275.9,32.5c-1.4-0.3-2.5-0.6-3.8-0.7c-2.2-0.2-4.3-0.2-6.3,0.9c-0.4,0.2-0.4-0.1-0.6-0.3 c-2.3-3.7-5.3-6.6-8.8-9.1c-4.1-2.9-9.3-4.9-14.3-5.6c6.5-1.1,12.9-0.5,19.1,2.1C267.4,22.4,272.2,26.7,275.9,32.5z"></path><path class="st1" d="M267.3,48.7c-0.8-1-1.7-1.8-2.7-2.5c-0.8-0.5-1.7-0.9-2.7-0.7c-0.4,0.1-0.3-0.3-0.3-0.5c0-2-0.3-4-0.7-6 c-1-4.9-3-9.4-6.5-13.1c-1-1-2.1-1.9-3.3-2.8C261.6,26.2,268.1,36.3,267.3,48.7z"></path><path class="st2" d="M257.5,54.2c-0.8,1.5-1.8,3-2.9,4.3c0,0,0,0.1-0.1,0.1c0,0,0,0,0,0c0,0,0,0,0,0.1c0,0,0,0,0,0c0,0,0,0,0,0.1 c0,0,0,0,0,0c-0.4-2.6-1.1-4.9-2.1-7.2c-0.1-0.3-0.2-0.5,0.2-0.7c3.3-2.1,4.6-5.3,4.7-9.1c0.1-2.5-0.5-4.9-1.2-7.3 c0-0.1-0.1-0.2-0.1-0.5c0,0,0,0,0,0c2,2.5,3.5,5.1,4,8.2C260.7,46.5,259.6,50.4,257.5,54.2z"></path><path class="st3" d="M254,45.3c-2.5,5.7-6.6,9.8-11.8,12.8c0,0,0,0,0,0c-0.3,0.2-0.5,0.3-0.8,0.5c1.2-2.1,2.8-4.1,1.8-6.9 c4.5-0.4,7.9-2.5,10.6-6.1c0-0.1,0.1-0.1,0.1-0.2c0,0,0,0,0-0.1C253.9,45.4,254,45.4,254,45.3z"></path><path class="st4" d="M270.3,10.7c-0.1,0-3-1.2-4.3-1.7c-4.7-1.7-9.5-2.7-14.6-2.9c-1.4-0.1-2.8,0-4.1,0c-2.8,0.1-5.5,0.6-8.1,1.3 c-4,1-7.8,2.7-11.5,5c-2.3,1.4-4.4,3-6.2,4.9c-0.6,0.6-1.5,1.7-1.5,1.7C220.3,18.7,241.7,3.5,270.3,10.7z"></path><path class="st5" d="M266.6,12.5c0.2-0.1,0.4-0.3,0.7-0.4c0.6-0.4,1.3-0.7,2-1c0.3-0.1,0.6-0.3,0.9-0.4c0.1,0,0.1-0.1,0.2-0.1 c-28.6-7.2-50,8.1-50.3,8.3c1.3-0.5,2.6-1,3.9-1.5c0.6-0.2,1.2-0.4,1.8-0.6c1.2-0.4,2.5-0.8,3.7-1.1c5.2-1.4,10.6-2.2,16-2 c5.5,0.1,10.8,1.1,15.8,3.3c0.1,0,0.1,0.1,0.2,0.1c0.1,0,0.2,0,0.3-0.1c0,0,0.1-0.1,0.1-0.1c0.1-0.2,0.3-0.5,0.5-0.7 C263.5,14.6,265,13.5,266.6,12.5z"></path><path class="st6" d="M275.9,32.5c-1.4-0.3-2.5-0.6-3.8-0.7c-2.2-0.2-4.3-0.2-6.3,0.9c-0.4,0.2-0.4-0.1-0.6-0.3 c-2.3-3.7-5.3-6.6-8.8-9.1c-4.1-2.9-9.3-4.9-14.3-5.6C242.2,17.6,260.4,17.5,275.9,32.5z"></path><path class="st7" d="M267.3,48.7c-0.8-1-1.7-1.8-2.7-2.5c-0.8-0.5-1.7-0.9-2.7-0.7c-0.4,0.1-0.3-0.3-0.3-0.5c0-2-0.3-4-0.7-6 c-1-4.9-3-9.4-6.5-13.1c-1-1-2.1-1.9-3.3-2.8C251.3,23.2,264.4,29,267.3,48.7z"></path><path class="st8" d="M254.6,58.6C254.6,58.6,254.6,58.6,254.6,58.6C254.5,58.6,254.5,58.6,254.6,58.6 C254.5,58.7,254.5,58.7,254.6,58.6c0,0.1-0.1,0.1-0.1,0.1c0,0,0,0,0,0c-0.4-2.6-1.1-4.9-2.1-7.2c-0.1-0.3-0.2-0.5,0.2-0.7 c3.3-2.1,4.6-5.3,4.7-9.1c0.1-2.5-0.5-4.9-1.2-7.3c0-0.1-0.1-0.2-0.1-0.5c0,0,0,0,0,0C256.1,34.3,261.9,42.4,254.6,58.6z"></path><path class="st9" d="M253.7,45.7c-1.3,1.8-7.2,9.8-11.5,12.5c0,0,0,0,0,0c-0.3,0.2-0.5,0.3-0.8,0.5c1.2-2.1,2.8-4.1,1.8-6.9 C247.6,51.4,251.1,49.3,253.7,45.7z"></path><g>	<path class="st10" d="M40.9,23.8c0.1,0,0.2,0,0.5,0.1c0.2,0,0.4,0.1,0.6,0.2c0.2,0.1,0.4,0.2,0.5,0.3c0.2,0.1,0.2,0.3,0.2,0.4  c0,0.1,0,0.3-0.1,0.5c0,0.2-0.1,0.4-0.2,0.7c-0.1,0.2-0.2,0.4-0.3,0.6c-0.1,0.2-0.2,0.3-0.4,0.3h-0.2l-3.8-0.3h-0.4  c-0.9,0-1.8,0.2-2.8,0.5c-1,0.3-1.9,0.7-2.8,1.3c-0.9,0.5-1.7,1.2-2.4,1.9c-0.7,0.7-1.2,1.5-1.5,2.2c-0.3,0.7-0.5,1.5-0.6,2.3  c0,3.1,0.1,4.8,0.3,5c0.1,0.2,0.3,0.5,0.5,1c0.2,0.4,0.5,0.8,0.8,1.2c0.3,0.4,0.6,0.7,1.1,0.9c0.4,0.2,1,0.4,1.7,0.6  c2,0.3,4.5,0.2,7.2-0.2c0.2,0.2,0.3,0.3,0.3,0.3c0,0.8-0.2,1.4-0.6,1.8c-0.4,0.4-1,0.7-1.6,0.9c-0.6,0.2-1.3,0.3-2,0.4  c-0.7,0-1.4,0.1-1.9,0.1c-2.2,0-4.1-0.4-5.7-1.3c-1.6-0.8-2.7-1.8-3.4-2.9c-0.7-1.1-1-2.7-1-4.7s0.2-3.4,0.5-4.2  c0.3-0.7,0.6-1.3,0.8-1.8c0.2-0.5,0.4-0.8,0.5-1.1c0.3-0.6,0.7-1.2,1.1-1.8c0.5-0.6,1-1.1,1.6-1.7c0.6-0.5,1.2-1,1.9-1.4  c0.7-0.4,1.3-0.7,2-0.9c0.1,0,0.7-0.2,2-0.6c1.3-0.4,3.6-0.5,7-0.5H40.9z"></path>	<path class="st10" d="M42.3,39.9c0-0.1,0-0.3,0-0.5c0-0.3,0-0.5,0-0.8c0-0.3,0-0.5,0-0.8c0-0.3,0-0.4,0-0.6c0-2.1,0.3-4,1-5.6  c0.7-1.7,1.6-3.1,2.9-4.2c1.3-1.1,2.7-2,4.5-2.6c1.7-0.6,3.6-0.9,5.7-0.9c1.5,0,2.8,0.2,4,0.5c1.2,0.3,2.3,0.8,3.1,1.5  c0.9,0.7,1.6,1.5,2.1,2.6c0.5,1.1,0.7,2.4,0.7,3.9c0,0.4,0,0.9-0.1,1.6c-0.1,0.7-0.2,1.4-0.3,2.1c-0.2,0.7-0.3,1.4-0.6,2  c-0.2,0.6-0.7,1.5-1.4,2.5c-0.7,1-1.5,2-2.3,2.7c-0.8,0.8-1.8,1.4-2.8,1.9c-1,0.5-2.1,0.8-3.3,1.1c-1.2,0.2-2.3,0.3-3.4,0.3  c-1.1,0-2.2-0.1-3.2-0.4c-1-0.3-2-0.7-2.8-1.2c-0.9-0.5-1.6-1.2-2.2-2C43.1,42.1,42.6,41.1,42.3,39.9z M46.6,38  c0,0.8,0.2,1.6,0.5,2.2c0.3,0.7,0.7,1.2,1.3,1.7c0.5,0.5,1.1,0.8,1.8,1.1c0.7,0.3,1.5,0.4,2.3,0.4c1.4,0,2.7-0.3,3.9-0.9  c1.2-0.6,2.2-1.3,3-2.3c0.8-1,1.5-2,1.9-3.3c0.5-1.2,0.7-2.5,0.7-3.9c0-0.8-0.1-1.5-0.3-2.3c-0.2-0.8-0.6-1.4-1-2  c-0.4-0.6-1-1.1-1.7-1.4c-0.7-0.3-1.5-0.5-2.4-0.5c-1.6,0-3.1,0.3-4.3,0.9c-1.2,0.6-2.3,1.4-3.1,2.5c-0.8,1-1.5,2.2-1.9,3.6  C46.8,35.1,46.6,36.5,46.6,38z"></path>	<path class="st10" d="M82.8,40.9l3.9-17.1h3.8l-4.7,22.6h-5.6l-6.1-16.4l-4,16.4h-3.2l4.9-22.6h4.6C80.6,35.2,82.7,40.9,82.8,40.9z  "></path>	<path class="st10" d="M89.8,39.9c0-0.1,0-0.3,0-0.5c0-0.3,0-0.5,0-0.8c0-0.3,0-0.5,0-0.8c0-0.3,0-0.4,0-0.6c0-2.1,0.3-4,1-5.6  c0.7-1.7,1.6-3.1,2.9-4.2c1.2-1.1,2.7-2,4.4-2.6c1.7-0.6,3.6-0.9,5.7-0.9c1.4,0,2.8,0.2,4,0.5c1.2,0.3,2.3,0.8,3.1,1.5  c0.9,0.7,1.5,1.5,2,2.6c0.5,1.1,0.7,2.4,0.7,3.9c0,0.4,0,0.9-0.1,1.6c-0.1,0.7-0.2,1.4-0.3,2.1c-0.2,0.7-0.3,1.4-0.6,2  c-0.2,0.6-0.7,1.3-1.3,2.1c-0.6,0.8-1.2,1.5-1.7,2.2l3,2.2l-1.7,1.9l-3.2-2.2c-0.3,0.2-0.9,0.5-1.8,0.9c-0.8,0.4-1.9,0.7-3,1  c-1.2,0.2-2.3,0.3-3.4,0.3c-1.1,0-2.2-0.1-3.2-0.4c-1-0.3-2-0.7-2.8-1.2c-0.8-0.5-1.6-1.2-2.2-2C90.6,42.1,90.1,41.1,89.8,39.9z   M94,37.9c0,0.9,0.2,1.6,0.5,2.3c0.3,0.7,0.7,1.2,1.3,1.7c0.5,0.5,1.1,0.8,1.8,1.1c0.7,0.3,1.5,0.4,2.3,0.4c1.4,0,3.1-0.5,4.9-1.5  l-5.2-3.7l1.9-1.8l5.3,3.7c0.8-0.9,1.4-2,1.9-3.3s0.7-2.5,0.7-3.9c0-0.8-0.1-1.6-0.3-2.3c-0.2-0.8-0.6-1.4-1-2  c-0.4-0.6-1-1-1.7-1.4c-0.7-0.3-1.5-0.5-2.4-0.5c-1.6,0-3.1,0.3-4.3,0.9c-1.2,0.6-2.3,1.4-3.1,2.5c-0.8,1-1.5,2.2-1.9,3.6  C94.2,35,94,36.4,94,37.9z"></path>	<path class="st10" d="M114.3,41.6c0-1.5,1.2-7.4,3.5-17.8h3.9c-2.2,9.2-3.1,14.5-2.9,15.9c0,0.3,0,0.7,0.1,1.2  c0.1,0.4,0.2,0.8,0.4,1.2c0.2,0.4,0.5,0.7,0.8,0.9c0.3,0.2,0.7,0.4,1.2,0.4c1.2,0.2,2.6,0.2,4.2,0c0.7-0.2,1.3-0.5,1.9-1  c0.6-0.5,1.1-1.2,1.7-2.1c0.5-0.9,1.9-6.4,4.3-16.4h3.7c-1.9,9.3-3,14.5-3.4,15.6c-0.4,1.1-0.9,2.1-1.4,2.9  c-0.6,0.9-1.3,1.6-2.2,2.2c-0.9,0.6-2,1.1-3.3,1.4c-1.3,0.3-2.8,0.5-4.7,0.5c-0.8,0-1.7-0.1-2.6-0.2c-0.9-0.1-1.7-0.4-2.5-0.7  s-1.4-0.8-1.9-1.5C114.5,43.5,114.3,42.7,114.3,41.6z"></path>	<path class="st10" d="M141.5,23.9h15.6l-1,2.8h-1.2h-9h-1l-1.5,6.8h10.2l-0.8,3.1h-10l-1.5,6.9h11.2l-1,3l-2.7,0.1h-2.6h-9.7  L141.5,23.9z"></path>	<path class="st10" d="M161.1,23.9h8.2c1.4,0.1,2.5,0.2,3.2,0.4c0.8,0.2,1.4,0.5,2,0.8c0.6,0.3,1,0.8,1.3,1.4  c0.3,0.6,0.5,1.3,0.5,2.2c0,1.3-0.2,2.6-0.7,3.6c-0.5,1.1-1.1,2-1.9,2.7c-0.8,0.8-2.2,1.5-4.2,2.2l4,9.1h-4.1L165.3,36l0.1-0.9  c0.6-0.1,1.4-0.3,2.2-0.4c0.8-0.2,1.5-0.4,2.1-0.8c0.6-0.3,1.1-0.8,1.5-1.4c0.4-0.6,0.6-1.4,0.6-2.4c0-0.2,0-0.5-0.1-0.8  c-0.1-0.3-0.2-0.6-0.3-0.9c-0.2-0.3-0.3-0.5-0.6-0.7c-0.2-0.2-0.5-0.3-0.8-0.3h-5.5L160,46.5h-3.5l-0.4-0.1L161.1,23.9z"></path>	<path class="st10" d="M177,39.9c0-0.1,0-0.3,0-0.5c0-0.3,0-0.5,0-0.8c0-0.3,0-0.5,0-0.8c0-0.3,0-0.4,0-0.6c0-2.1,0.3-4,1-5.6  c0.7-1.7,1.6-3.1,2.9-4.2c1.3-1.1,2.7-2,4.5-2.6c1.7-0.6,3.6-0.9,5.7-0.9c1.5,0,2.8,0.2,4,0.5c1.2,0.3,2.3,0.8,3.1,1.5  c0.9,0.7,1.6,1.5,2.1,2.6c0.5,1.1,0.7,2.4,0.7,3.9c0,0.4,0,0.9-0.1,1.6c-0.1,0.7-0.2,1.4-0.3,2.1c-0.2,0.7-0.3,1.4-0.6,2  c-0.2,0.6-0.7,1.5-1.4,2.5c-0.7,1-1.5,2-2.3,2.7c-0.8,0.8-1.8,1.4-2.8,1.9c-1,0.5-2.1,0.8-3.3,1.1c-1.2,0.2-2.3,0.3-3.4,0.3  c-1.1,0-2.2-0.1-3.2-0.4c-1-0.3-2-0.7-2.8-1.2c-0.9-0.5-1.6-1.2-2.2-2C177.8,42.1,177.3,41.1,177,39.9z M181.2,38  c0,0.8,0.2,1.6,0.5,2.2c0.3,0.7,0.7,1.2,1.3,1.7c0.5,0.5,1.1,0.8,1.8,1.1c0.7,0.3,1.5,0.4,2.3,0.4c1.4,0,2.7-0.3,3.9-0.9  c1.2-0.6,2.2-1.3,3-2.3c0.8-1,1.5-2,1.9-3.3c0.5-1.2,0.7-2.5,0.7-3.9c0-0.8-0.1-1.5-0.3-2.3c-0.2-0.8-0.6-1.4-1-2  c-0.4-0.6-1-1.1-1.7-1.4c-0.7-0.3-1.5-0.5-2.4-0.5c-1.6,0-3.1,0.3-4.3,0.9c-1.2,0.6-2.3,1.4-3.1,2.5c-0.8,1-1.5,2.2-1.9,3.6  C181.4,35.1,181.2,36.5,181.2,38z"></path>	<path class="st10" d="M206.6,23.9h8.2c1.4,0.1,2.5,0.2,3.2,0.4c0.8,0.2,1.4,0.5,2,0.8c0.6,0.3,1,0.8,1.3,1.4  c0.3,0.6,0.5,1.3,0.5,2.2c0,1.3-0.2,2.6-0.7,3.6c-0.5,1.1-1.1,2-1.9,2.7c-0.8,0.8-2.2,1.5-4.2,2.2l4,9.1h-4.1L210.7,36l0.1-0.9  c0.6-0.1,1.4-0.3,2.2-0.4c0.8-0.2,1.5-0.4,2.1-0.8c0.6-0.3,1.1-0.8,1.5-1.4c0.4-0.6,0.6-1.4,0.6-2.4c0-0.2,0-0.5-0.1-0.8  c-0.1-0.3-0.2-0.6-0.3-0.9c-0.2-0.3-0.3-0.5-0.6-0.7c-0.2-0.2-0.5-0.3-0.8-0.3H210l-4.6,19.1H202l-0.4-0.1L206.6,23.9z"></path>	<path class="st10" d="M222.8,45.9c0-0.1,0-0.1,0-0.2c0,0,0-0.1,0-0.2c0-0.1,0-0.1,0-0.2c0-0.1,0.1-0.3,0.2-0.5  c0.1-0.2,0.2-0.4,0.2-0.6c0.1-0.2,0.1-0.4,0.2-0.5c0.1-0.2,0.1-0.2,0.1-0.2h8.4c0.3,0,0.7-0.1,1-0.2s0.5-0.4,0.7-0.7  c0.2-0.3,0.3-0.6,0.4-0.9c0.1-0.3,0.2-0.6,0.3-1c-0.1-0.4-0.2-0.7-0.2-0.9c0-0.2-0.2-0.5-0.4-0.7l-6.3-6.3  c-0.3-0.3-0.5-0.6-0.6-0.8c-0.2-0.2-0.3-0.5-0.3-0.7c-0.1-0.2-0.1-0.5-0.1-0.7c0-0.3,0-0.6,0-0.9c0-1,0.2-1.8,0.6-2.5  c0.4-0.7,0.9-1.3,1.5-1.7s1.3-0.8,2.1-1c0.8-0.2,1.6-0.4,2.4-0.5h7.4h1.1l-0.4,2.5l-1,0.6h-7c-0.2,0-0.5,0.1-0.7,0.3  c-0.2,0.2-0.4,0.4-0.6,0.7c-0.2,0.3-0.3,0.5-0.4,0.8c-0.1,0.3-0.2,0.5-0.2,0.7c0,0.6,0.2,1.1,0.6,1.6c0.4,0.5,0.9,1.1,1.5,1.7  c0.6,0.6,1.3,1.2,1.9,1.8c0.7,0.6,1.3,1.2,1.9,1.9c0.6,0.6,1.1,1.3,1.5,2c0.4,0.7,0.6,1.5,0.6,2.3c0,1-0.2,1.9-0.6,2.6  c-0.4,0.7-1,1.3-1.7,1.9c-0.7,0.6-1.4,1-2.3,1.1c-0.8,0.1-1.7,0.2-2.7,0.2c-1,0-1.9,0-2.7,0c-0.9,0-1.6,0-2.3,0l-3.5-0.1l-0.6-0.3  C222.8,46.1,222.8,46,222.8,45.9z"></path></g><g>	<path class="st10" d="M28,53.2c-0.1,0.1-0.1,0.1-0.1,0.2c0,0-0.1,0.1-0.2,0.1s-0.1,0-0.2-0.1c-0.1-0.1-0.2-0.1-0.3-0.2  C27,53.1,26.9,53,26.8,53c-0.1-0.1-0.3-0.1-0.5-0.1c-0.2,0-0.4,0-0.5,0.1c-0.2,0.1-0.3,0.1-0.4,0.2c-0.1,0.1-0.2,0.2-0.2,0.4  C25,53.7,25,53.9,25,54c0,0.2,0,0.3,0.1,0.4c0.1,0.1,0.2,0.2,0.3,0.3c0.1,0.1,0.3,0.2,0.5,0.2c0.2,0.1,0.4,0.1,0.5,0.2  s0.4,0.2,0.5,0.3c0.2,0.1,0.3,0.2,0.5,0.3c0.1,0.1,0.2,0.3,0.3,0.5c0.1,0.2,0.1,0.4,0.1,0.7c0,0.4-0.1,0.7-0.2,1.1  c-0.1,0.3-0.3,0.6-0.6,0.9c-0.2,0.3-0.5,0.5-0.9,0.6c-0.4,0.2-0.8,0.2-1.2,0.2c-0.2,0-0.5,0-0.7-0.1s-0.4-0.1-0.6-0.2  c-0.2-0.1-0.4-0.2-0.5-0.3c-0.2-0.1-0.3-0.3-0.4-0.4l0.5-0.7c0-0.1,0.1-0.1,0.2-0.1c0.1,0,0.1,0,0.2,0c0.1,0,0.1,0,0.2,0.1  c0.1,0,0.1,0.1,0.2,0.1c0.1,0.1,0.1,0.1,0.2,0.2c0.1,0.1,0.2,0.1,0.3,0.2c0.1,0.1,0.2,0.1,0.3,0.1c0.1,0,0.3,0.1,0.4,0.1  c0.4,0,0.7-0.1,1-0.3c0.2-0.2,0.3-0.6,0.3-1c0-0.2,0-0.3-0.1-0.4s-0.2-0.2-0.3-0.3c-0.1-0.1-0.3-0.1-0.5-0.2  c-0.2-0.1-0.4-0.1-0.5-0.2s-0.4-0.1-0.5-0.2c-0.2-0.1-0.3-0.2-0.5-0.3c-0.1-0.1-0.2-0.3-0.3-0.5c-0.1-0.2-0.1-0.5-0.1-0.8  c0-0.3,0.1-0.7,0.2-1c0.1-0.3,0.3-0.6,0.5-0.8c0.2-0.2,0.5-0.4,0.8-0.6c0.3-0.1,0.7-0.2,1.1-0.2c0.2,0,0.4,0,0.6,0.1  c0.2,0,0.4,0.1,0.6,0.2c0.2,0.1,0.3,0.2,0.5,0.3c0.1,0.1,0.3,0.2,0.4,0.4L28,53.2z"></path>	<path class="st10" d="M40.4,55.2c0,0.4,0,0.8-0.1,1.2c-0.1,0.4-0.2,0.8-0.4,1.1c-0.2,0.3-0.4,0.6-0.6,0.9c-0.3,0.3-0.5,0.5-0.8,0.7  c-0.3,0.2-0.7,0.3-1,0.4c-0.4,0.1-0.7,0.2-1.2,0.2c-0.5,0-0.9-0.1-1.3-0.3c-0.4-0.2-0.7-0.4-1-0.7c-0.3-0.3-0.5-0.7-0.6-1.1  S33,56.8,33,56.3c0-0.4,0-0.8,0.1-1.2c0.1-0.4,0.2-0.8,0.4-1.1c0.2-0.3,0.4-0.6,0.6-0.9c0.3-0.3,0.5-0.5,0.8-0.7  c0.3-0.2,0.7-0.3,1-0.4c0.4-0.1,0.8-0.2,1.2-0.2c0.5,0,0.9,0.1,1.3,0.3c0.4,0.2,0.7,0.4,1,0.7c0.3,0.3,0.5,0.7,0.6,1.1  C40.3,54.3,40.4,54.7,40.4,55.2z M39,55.3c0-0.4,0-0.7-0.1-1c-0.1-0.3-0.2-0.5-0.4-0.7c-0.2-0.2-0.4-0.4-0.6-0.5  c-0.2-0.1-0.5-0.2-0.8-0.2c-0.4,0-0.7,0.1-1.1,0.2c-0.3,0.2-0.6,0.4-0.8,0.7c-0.2,0.3-0.4,0.6-0.5,1.1c-0.1,0.4-0.2,0.9-0.2,1.4  c0,0.4,0,0.7,0.1,1c0.1,0.3,0.2,0.5,0.4,0.7c0.2,0.2,0.4,0.4,0.6,0.5c0.2,0.1,0.5,0.2,0.8,0.2c0.4,0,0.8-0.1,1.1-0.2  c0.3-0.2,0.6-0.4,0.8-0.7c0.2-0.3,0.4-0.6,0.5-1.1C38.9,56.2,39,55.8,39,55.3z"></path>	<path class="st10" d="M47.5,53l-0.3,2.4h2.7l-0.2,1.1H47l-0.4,3.2h-1.4l1-7.9h4.6L50.6,53H47.5z"></path>	<path class="st10" d="M60.9,53h-2.1L58,59.7h-1.4l0.8-6.7h-2.2l0.1-1.2h5.7L60.9,53z"></path>	<path class="st10" d="M75.8,51.8l-3.2,7.9h-1.3l-0.9-5.4c0-0.1,0-0.1,0-0.2c0-0.1,0-0.2,0-0.3c0,0.1-0.1,0.2-0.1,0.3  c0,0.1-0.1,0.2-0.1,0.2l-2.2,5.4h-1.3l-1.3-7.9h1.1c0.1,0,0.2,0,0.3,0.1c0.1,0.1,0.1,0.1,0.1,0.2l0.7,4.8c0,0.1,0,0.2,0,0.4  c0,0.1,0,0.3,0,0.4c0-0.1,0.1-0.3,0.1-0.4c0-0.1,0.1-0.3,0.1-0.4l2-4.8c0-0.1,0.1-0.2,0.2-0.2c0.1-0.1,0.2-0.1,0.3-0.1h0.3  c0.1,0,0.2,0,0.3,0.1c0.1,0.1,0.1,0.1,0.1,0.2l0.8,4.8c0,0.1,0,0.2,0.1,0.4c0,0.1,0,0.3,0,0.4c0-0.1,0.1-0.3,0.1-0.4  c0-0.1,0.1-0.3,0.1-0.4l1.9-4.8c0,0,0-0.1,0.1-0.1c0,0,0.1-0.1,0.1-0.1c0,0,0.1-0.1,0.2-0.1c0.1,0,0.1,0,0.2,0H75.8z"></path>	<path class="st10" d="M85.6,59.7h-1.1c-0.1,0-0.2,0-0.3-0.1c-0.1-0.1-0.1-0.1-0.1-0.2l-0.3-1.6h-2.9l-0.7,1.6  c0,0.1-0.1,0.2-0.2,0.2c-0.1,0.1-0.2,0.1-0.3,0.1h-1.1l3.8-7.9h1.4L85.6,59.7z M83.5,56.7L83,54c0-0.1,0-0.3-0.1-0.4  c0-0.2-0.1-0.3-0.1-0.5c-0.1,0.2-0.1,0.4-0.2,0.5c-0.1,0.2-0.1,0.3-0.2,0.4l-1.2,2.7H83.5z"></path>	<path class="st10" d="M93.6,51.8c0.5,0,0.8,0,1.2,0.1s0.6,0.2,0.8,0.4c0.2,0.2,0.4,0.4,0.5,0.6c0.1,0.2,0.1,0.5,0.1,0.8  c0,0.3,0,0.6-0.1,0.9c-0.1,0.3-0.2,0.5-0.4,0.7c-0.2,0.2-0.4,0.4-0.6,0.6c-0.2,0.2-0.5,0.3-0.8,0.4c0.1,0.1,0.2,0.1,0.2,0.2  c0.1,0.1,0.1,0.2,0.2,0.3l1.4,2.9h-1.3c-0.2,0-0.4-0.1-0.5-0.3l-1.2-2.5c0-0.1-0.1-0.2-0.2-0.2c-0.1,0-0.2-0.1-0.3-0.1h-0.5  l-0.4,3.1h-1.4l1-7.9H93.6z M93.2,55.6c0.3,0,0.5,0,0.7-0.1c0.2-0.1,0.4-0.2,0.5-0.3c0.1-0.1,0.2-0.3,0.3-0.5  c0.1-0.2,0.1-0.4,0.1-0.6c0-0.3-0.1-0.6-0.3-0.8c-0.2-0.2-0.5-0.3-1-0.3h-0.8l-0.3,2.7H93.2z"></path>	<path class="st10" d="M103.3,53l-0.3,2.2h2.5l-0.1,1.1h-2.5l-0.3,2.3h3.2l-0.1,1.1H101l1-7.9h4.6l-0.1,1.1H103.3z"></path>	<path class="st10" d="M123,53h-2.1l-0.8,6.7h-1.4l0.8-6.7h-2.2l0.1-1.2h5.7L123,53z"></path>	<path class="st10" d="M129.5,53l-0.3,2.2h2.5l-0.1,1.1h-2.5l-0.3,2.3h3.2l-0.1,1.1h-4.6l1-7.9h4.6l-0.1,1.1H129.5z"></path>	<path class="st10" d="M140.3,58.6c0.2,0,0.4,0,0.6-0.1c0.2,0,0.3-0.1,0.4-0.1c0.1-0.1,0.2-0.1,0.3-0.2c0.1-0.1,0.2-0.1,0.2-0.2  c0.1-0.1,0.1-0.1,0.2-0.1c0.1,0,0.1-0.1,0.2-0.1c0,0,0.1,0,0.1,0c0,0,0.1,0,0.1,0.1l0.5,0.6c-0.3,0.4-0.7,0.7-1.2,0.9  c-0.5,0.2-1,0.3-1.6,0.3c-0.5,0-0.9-0.1-1.3-0.3c-0.4-0.2-0.7-0.4-1-0.7c-0.3-0.3-0.5-0.7-0.6-1.1c-0.1-0.4-0.2-0.9-0.2-1.4  c0-0.5,0-0.9,0.1-1.3c0.1-0.4,0.2-0.8,0.4-1.1c0.2-0.3,0.4-0.6,0.6-0.9c0.3-0.3,0.5-0.5,0.8-0.7c0.3-0.2,0.6-0.3,1-0.4  c0.4-0.1,0.7-0.2,1.1-0.2c0.3,0,0.5,0,0.8,0.1c0.2,0.1,0.4,0.1,0.6,0.2c0.2,0.1,0.4,0.2,0.5,0.3c0.2,0.1,0.3,0.3,0.4,0.4l-0.5,0.6  c0,0-0.1,0.1-0.1,0.1c0,0-0.1,0-0.2,0c-0.1,0-0.2,0-0.2-0.1c-0.1-0.1-0.2-0.1-0.3-0.2c-0.1-0.1-0.3-0.1-0.4-0.2  c-0.2-0.1-0.4-0.1-0.7-0.1c-0.4,0-0.7,0.1-1.1,0.2s-0.6,0.4-0.8,0.7c-0.2,0.3-0.4,0.6-0.6,1c-0.1,0.4-0.2,0.9-0.2,1.4  c0,0.4,0,0.7,0.1,1c0.1,0.3,0.2,0.5,0.4,0.7c0.2,0.2,0.4,0.4,0.6,0.5C139.8,58.5,140,58.6,140.3,58.6z"></path>	<path class="st10" d="M154.9,51.8l-1,7.9h-1.4l0.4-3.4h-3.3l-0.4,3.4h-1.4l1-7.9h1.4l-0.4,3.4h3.3l0.4-3.4H154.9z"></path>	<path class="st10" d="M166.8,51.8l-1,7.9h-0.7c-0.1,0-0.2,0-0.3-0.1c-0.1,0-0.1-0.1-0.2-0.2l-3-5.4c0,0.1,0,0.2,0,0.3  c0,0.1,0,0.2,0,0.2l-0.6,5.1h-1.2l1-7.9h0.7c0.1,0,0.1,0,0.2,0c0,0,0.1,0,0.1,0c0,0,0.1,0,0.1,0.1c0,0,0.1,0.1,0.1,0.1l3.1,5.4  c0-0.1,0-0.2,0-0.3s0-0.2,0-0.3l0.6-5H166.8z"></path>	<path class="st10" d="M179,55.2c0,0.4,0,0.8-0.1,1.2c-0.1,0.4-0.2,0.8-0.4,1.1c-0.2,0.3-0.4,0.6-0.6,0.9c-0.3,0.3-0.5,0.5-0.8,0.7  c-0.3,0.2-0.7,0.3-1,0.4c-0.4,0.1-0.7,0.2-1.2,0.2c-0.5,0-0.9-0.1-1.3-0.3c-0.4-0.2-0.7-0.4-1-0.7c-0.3-0.3-0.5-0.7-0.6-1.1  c-0.1-0.4-0.2-0.9-0.2-1.4c0-0.4,0-0.8,0.1-1.2c0.1-0.4,0.2-0.8,0.4-1.1c0.2-0.3,0.4-0.6,0.6-0.9c0.3-0.3,0.5-0.5,0.8-0.7  c0.3-0.2,0.7-0.3,1-0.4c0.4-0.1,0.8-0.2,1.2-0.2c0.5,0,0.9,0.1,1.3,0.3c0.4,0.2,0.7,0.4,1,0.7c0.3,0.3,0.5,0.7,0.6,1.1  S179,54.7,179,55.2z M177.6,55.3c0-0.4,0-0.7-0.1-1c-0.1-0.3-0.2-0.5-0.4-0.7c-0.2-0.2-0.4-0.4-0.6-0.5c-0.2-0.1-0.5-0.2-0.8-0.2  c-0.4,0-0.7,0.1-1.1,0.2c-0.3,0.2-0.6,0.4-0.8,0.7c-0.2,0.3-0.4,0.6-0.5,1.1c-0.1,0.4-0.2,0.9-0.2,1.4c0,0.4,0,0.7,0.1,1  c0.1,0.3,0.2,0.5,0.4,0.7c0.2,0.2,0.4,0.4,0.6,0.5c0.2,0.1,0.5,0.2,0.8,0.2c0.4,0,0.8-0.1,1.1-0.2c0.3-0.2,0.6-0.4,0.8-0.7  c0.2-0.3,0.4-0.6,0.5-1.1C177.5,56.2,177.6,55.8,177.6,55.3z"></path>	<path class="st10" d="M188.2,58.5l-0.1,1.2h-4.3l1-7.9h1.4l-0.8,6.7H188.2z"></path>	<path class="st10" d="M200.3,55.2c0,0.4,0,0.8-0.1,1.2s-0.2,0.8-0.4,1.1c-0.2,0.3-0.4,0.6-0.6,0.9c-0.3,0.3-0.5,0.5-0.8,0.7  c-0.3,0.2-0.7,0.3-1,0.4c-0.4,0.1-0.7,0.2-1.2,0.2c-0.5,0-0.9-0.1-1.3-0.3c-0.4-0.2-0.7-0.4-1-0.7c-0.3-0.3-0.5-0.7-0.6-1.1  c-0.1-0.4-0.2-0.9-0.2-1.4c0-0.4,0-0.8,0.1-1.2c0.1-0.4,0.2-0.8,0.4-1.1c0.2-0.3,0.4-0.6,0.6-0.9c0.3-0.3,0.5-0.5,0.8-0.7  c0.3-0.2,0.7-0.3,1-0.4c0.4-0.1,0.8-0.2,1.2-0.2c0.5,0,0.9,0.1,1.3,0.3c0.4,0.2,0.7,0.4,1,0.7s0.5,0.7,0.6,1.1  S200.3,54.7,200.3,55.2z M198.9,55.3c0-0.4,0-0.7-0.1-1c-0.1-0.3-0.2-0.5-0.4-0.7c-0.2-0.2-0.4-0.4-0.6-0.5  c-0.2-0.1-0.5-0.2-0.8-0.2c-0.4,0-0.7,0.1-1.1,0.2c-0.3,0.2-0.6,0.4-0.8,0.7c-0.2,0.3-0.4,0.6-0.5,1.1c-0.1,0.4-0.2,0.9-0.2,1.4  c0,0.4,0,0.7,0.1,1c0.1,0.3,0.2,0.5,0.4,0.7c0.2,0.2,0.4,0.4,0.6,0.5c0.2,0.1,0.5,0.2,0.8,0.2c0.4,0,0.8-0.1,1.1-0.2  c0.3-0.2,0.6-0.4,0.8-0.7c0.2-0.3,0.4-0.6,0.5-1.1C198.8,56.2,198.9,55.8,198.9,55.3z"></path>	<path class="st10" d="M209.1,55.8h2.4l-0.4,3.2c-0.4,0.3-0.8,0.5-1.3,0.6c-0.5,0.1-1,0.2-1.6,0.2c-0.5,0-0.9-0.1-1.3-0.3  c-0.4-0.2-0.7-0.4-1-0.7c-0.3-0.3-0.5-0.7-0.6-1.1c-0.2-0.4-0.2-0.9-0.2-1.4c0-0.4,0-0.9,0.1-1.3c0.1-0.4,0.2-0.8,0.4-1.1  c0.2-0.3,0.4-0.6,0.6-0.9c0.3-0.3,0.5-0.5,0.8-0.7c0.3-0.2,0.6-0.3,1-0.4c0.4-0.1,0.7-0.2,1.1-0.2c0.3,0,0.6,0,0.9,0.1  c0.3,0.1,0.5,0.1,0.7,0.2c0.2,0.1,0.4,0.2,0.6,0.3c0.2,0.1,0.3,0.3,0.4,0.4l-0.5,0.6c-0.1,0.1-0.2,0.2-0.3,0.2  c-0.1,0-0.2,0-0.3-0.1c-0.1-0.1-0.2-0.1-0.3-0.2c-0.1-0.1-0.2-0.1-0.3-0.2c-0.1-0.1-0.3-0.1-0.4-0.1c-0.2,0-0.3,0-0.6,0  c-0.4,0-0.7,0.1-1.1,0.2c-0.3,0.2-0.6,0.4-0.8,0.7c-0.2,0.3-0.4,0.6-0.5,1s-0.2,0.9-0.2,1.3c0,0.4,0,0.7,0.1,1  c0.1,0.3,0.2,0.5,0.4,0.8c0.2,0.2,0.4,0.4,0.6,0.5c0.2,0.1,0.5,0.2,0.8,0.2c0.3,0,0.6,0,0.8-0.1c0.2-0.1,0.4-0.1,0.6-0.2l0.2-1.5  h-0.9c-0.1,0-0.2,0-0.2-0.1c0,0-0.1-0.1-0.1-0.2L209.1,55.8z"></path>	<path class="st10" d="M217.9,59.7h-1.4l1-7.9h1.4L217.9,59.7z"></path>	<path class="st10" d="M225.9,53l-0.3,2.2h2.5l-0.1,1.1h-2.5l-0.3,2.3h3.2l-0.1,1.1h-4.6l1-7.9h4.6l-0.1,1.1H225.9z"></path>	<path class="st10" d="M238.3,53.2c-0.1,0.1-0.1,0.1-0.1,0.2c0,0-0.1,0.1-0.2,0.1c-0.1,0-0.1,0-0.2-0.1c-0.1-0.1-0.2-0.1-0.3-0.2  c-0.1-0.1-0.2-0.1-0.4-0.2c-0.1-0.1-0.3-0.1-0.5-0.1c-0.2,0-0.4,0-0.5,0.1c-0.2,0.1-0.3,0.1-0.4,0.2c-0.1,0.1-0.2,0.2-0.2,0.4  c-0.1,0.1-0.1,0.3-0.1,0.4c0,0.2,0,0.3,0.1,0.4c0.1,0.1,0.2,0.2,0.3,0.3c0.1,0.1,0.3,0.2,0.5,0.2c0.2,0.1,0.4,0.1,0.5,0.2  s0.4,0.2,0.5,0.3c0.2,0.1,0.3,0.2,0.5,0.3c0.1,0.1,0.2,0.3,0.3,0.5c0.1,0.2,0.1,0.4,0.1,0.7c0,0.4-0.1,0.7-0.2,1.1  c-0.1,0.3-0.3,0.6-0.6,0.9c-0.2,0.3-0.5,0.5-0.9,0.6c-0.4,0.2-0.8,0.2-1.2,0.2c-0.2,0-0.5,0-0.7-0.1c-0.2,0-0.4-0.1-0.6-0.2  s-0.4-0.2-0.5-0.3s-0.3-0.3-0.4-0.4l0.5-0.7c0-0.1,0.1-0.1,0.2-0.1c0.1,0,0.1,0,0.2,0c0.1,0,0.1,0,0.2,0.1c0.1,0,0.1,0.1,0.2,0.1  c0.1,0.1,0.1,0.1,0.2,0.2c0.1,0.1,0.2,0.1,0.3,0.2c0.1,0.1,0.2,0.1,0.3,0.1c0.1,0,0.3,0.1,0.4,0.1c0.4,0,0.7-0.1,1-0.3  c0.2-0.2,0.3-0.6,0.3-1c0-0.2,0-0.3-0.1-0.4c-0.1-0.1-0.2-0.2-0.3-0.3c-0.1-0.1-0.3-0.1-0.5-0.2c-0.2-0.1-0.4-0.1-0.5-0.2  c-0.2-0.1-0.4-0.1-0.5-0.2c-0.2-0.1-0.3-0.2-0.5-0.3c-0.1-0.1-0.2-0.3-0.3-0.5c-0.1-0.2-0.1-0.5-0.1-0.8c0-0.3,0.1-0.7,0.2-1  c0.1-0.3,0.3-0.6,0.5-0.8c0.2-0.2,0.5-0.4,0.8-0.6c0.3-0.1,0.7-0.2,1.1-0.2c0.2,0,0.4,0,0.6,0.1c0.2,0,0.4,0.1,0.6,0.2  c0.2,0.1,0.3,0.2,0.5,0.3c0.1,0.1,0.3,0.2,0.4,0.4L238.3,53.2z"></path></g></svg>